<svg width="20" height="20" viewBox="0 0 20 20" fill="none" xmlns="http://www.w3.org/2000/svg">
<g clip-path="url(#clip0_2709_30902)">
<path d="M1.93457 15.7227V16.7676C1.93457 17.6172 2.27637 18.4302 2.88672 19.0308C3.49707 19.6313 4.32227 19.9683 5.18408 19.9683H15.3159C16.1777 19.9683 17.0054 19.6313 17.6133 19.0308C18.2236 18.4302 18.5654 17.6172 18.5654 16.7676V15.7349L1.93457 15.7227Z" fill="#6FAD49"/>
<path d="M18.5703 16.0547V6.7041C18.5679 6.37695 18.436 6.06445 18.2065 5.83252L12.75 0.375977C12.5181 0.144043 12.2056 0.0170898 11.8784 0.0170898H5.18164C3.38721 0.0170898 1.92969 1.47217 1.92969 3.26904V16.0547" fill="#5FA434"/>
<path d="M13.6826 13.3301H11.7905L10.4478 11.1938C10.3672 11.0718 10.2744 10.918 10.1719 10.7349C10.1108 10.8765 10.0303 11.0303 9.92773 11.1938L8.58496 13.3301H6.81494L9.19531 9.97314L6.93701 6.61621H8.76807L9.89844 8.63037C9.95947 8.71094 10.04 8.84522 10.1426 9.02832C10.1841 9.10889 10.2134 9.16992 10.2354 9.21143C10.4185 8.84522 10.521 8.65234 10.5405 8.63037L11.6392 6.61621H13.4409L11.2119 10.0049L13.6826 13.3301Z" fill="white"/>
<path d="M18.1626 5.80812L12.7085 0.351574C12.5352 0.180676 12.3154 0.0659295 12.0762 0.0219842C12.042 0.0171014 12.0054 0.026867 11.9785 0.0488396C11.9517 0.0732537 11.937 0.104992 11.937 0.141613V2.77833C11.937 3.78663 12.3398 4.75587 13.0527 5.46876C13.7681 6.18165 14.7373 6.5796 15.7456 6.57716H18.3823C18.4189 6.57716 18.4531 6.56251 18.4751 6.53566C18.4995 6.5088 18.5093 6.47218 18.5068 6.438C18.458 6.19874 18.3384 5.97902 18.1626 5.80812Z" fill="#457F20"/>
<path d="M15.8701 5.97168H18.2993C18.2603 5.91309 18.2139 5.85693 18.165 5.80811L12.7085 0.351562C12.6572 0.300293 12.6035 0.256348 12.5449 0.217285V2.64648C12.5449 4.48242 14.0342 5.97168 15.8701 5.97168Z" fill="#98D074"/>
</g>
<defs>
<clipPath id="clip0_2709_30902">
<rect width="17.5" height="20" fill="white" transform="translate(1.5)"/>
</clipPath>
</defs>
</svg>
