<svg width="20" height="20" viewBox="0 0 20 20" fill="none" xmlns="http://www.w3.org/2000/svg">
<g clip-path="url(#clip0_2709_30862)">
<path d="M1.55957 15.7715V16.7676C1.55957 17.6172 1.90137 18.4302 2.51172 19.0308C3.12207 19.6313 3.94727 19.9683 4.80908 19.9683H14.9409C15.8027 19.9683 16.6304 19.6313 17.2383 19.0308C17.8486 18.4302 18.1904 17.6172 18.1904 16.7676V15.7837L1.55957 15.7715Z" fill="#3A92F1"/>
<path d="M18.2075 16.0547V6.7041C18.2051 6.37695 18.0732 6.06445 17.8438 5.83252L12.3896 0.375977C12.1577 0.144043 11.8452 0.0170898 11.5181 0.0170898H4.81885C3.02441 0.0170898 1.56689 1.47217 1.56689 3.26904V16.0547" fill="#3A99FF"/>
<path d="M17.7876 5.80812L12.3335 0.351574C12.1602 0.180676 11.9404 0.0659295 11.7012 0.0219842C11.667 0.0171014 11.6304 0.026867 11.6035 0.0488396C11.5767 0.0732537 11.562 0.104992 11.562 0.141613V2.77833C11.562 3.78663 11.9648 4.75587 12.6777 5.46876C13.3931 6.18165 14.3623 6.5796 15.3706 6.57716H18.0073C18.0439 6.57716 18.0781 6.56251 18.1001 6.53566C18.1245 6.5088 18.1343 6.47218 18.1318 6.438C18.083 6.19874 17.9634 5.97902 17.7876 5.80812Z" fill="#1B83E0"/>
<path d="M15.4951 5.97168H17.9243C17.8853 5.91309 17.8389 5.85693 17.79 5.80811L12.3335 0.351562C12.2822 0.300293 12.2285 0.256348 12.1699 0.217285V2.64648C12.1699 4.48242 13.6592 5.97168 15.4951 5.97168Z" fill="#8DC4FF"/>
<path d="M5.97607 9.87305C5.97607 10.9479 6.40306 11.9787 7.16309 12.7388C7.92313 13.4988 8.95396 13.9258 10.0288 13.9258C11.1037 13.9258 12.1345 13.4988 12.8945 12.7388C13.6546 11.9787 14.0815 10.9479 14.0815 9.87305C14.0815 8.79819 13.6546 7.76737 12.8945 7.00733C12.1345 6.2473 11.1037 5.82031 10.0288 5.82031C8.95396 5.82031 7.92313 6.2473 7.16309 7.00733C6.40306 7.76737 5.97607 8.79819 5.97607 9.87305Z" fill="#66B2F7"/>
<path d="M12.1187 9.50193C11.2568 8.84275 10.3926 8.18601 9.53076 7.52683C9.22314 7.29245 8.78125 7.51218 8.78125 7.89792V11.8481C8.78125 12.2339 9.22314 12.4536 9.53076 12.2192C10.3926 11.56 11.2568 10.9033 12.1187 10.2441C12.3628 10.0561 12.3628 9.68747 12.1187 9.50193Z" fill="white"/>
</g>
<defs>
<clipPath id="clip0_2709_30862">
<rect width="16.75" height="20" fill="white" transform="translate(1.5)"/>
</clipPath>
</defs>
</svg>
